<svg xmlns="http://www.w3.org/2000/svg" width="24" height="25" viewBox="0 0 24 25">
  <metadata><?xpacket begin="﻿" id="W5M0MpCehiHzreSzNTczkc9d"?>
<x:xmpmeta xmlns:x="adobe:ns:meta/" x:xmptk="Adobe XMP Core 5.6-c140 79.160451, 2017/05/06-01:08:21        ">
   <rdf:RDF xmlns:rdf="http://www.w3.org/1999/02/22-rdf-syntax-ns#">
      <rdf:Description rdf:about=""/>
   </rdf:RDF>
</x:xmpmeta>





















<?xpacket end="w"?></metadata>
<defs>
    <style>
      .cls-1 {
        fill: none;
        stroke: #f8f8f8;
        stroke-width: 2px;
        fill-rule: evenodd;
      }
    </style>
  </defs>
  <path id="Forme_3" data-name="Forme 3" class="cls-1" d="M3.514,22.181H9.8c0.031,0,.079.016,0.11,0.016h4.255a0.258,0.258,0,0,0,.11-0.016h6.241a0.641,0.641,0,0,0,.646-0.649V12a0.353,0.353,0,0,0-.016-0.127,0.169,0.169,0,0,0-.032-0.079c0-.015,0-0.031-0.015-0.031a0.34,0.34,0,0,0-.047-0.08c0-.016-0.016-0.016-0.016-0.032a0.465,0.465,0,0,0-.079-0.095L12.451,3a0.645,0.645,0,0,0-.914,0l-8.511,8.56a0.452,0.452,0,0,0-.079.095c0,0.016-.015.016-0.015,0.032-0.016.032-.031,0.047-0.047,0.08,0,0.016-.016.031-0.016,0.047-0.016.031-.016,0.047-0.031,0.079a0.354,0.354,0,0,0-.015.127v9.529a0.739,0.739,0,0,0,.693.634h0Zm10.008-1.3H10.56"/>
</svg>
