<svg id="Calque_1" data-name="Calque 1" xmlns="http://www.w3.org/2000/svg" viewBox="0 0 97.03 41.63"><defs><style>.cls-1,.cls-3,.cls-4{fill:#fff;}.cls-2{opacity:0.5;}.cls-3{opacity:0.6;}.cls-4{opacity:0.8;}.cls-5{opacity:0.9;}</style></defs><title>Plan de travail 1</title><g id="_Groupe_" data-name="&lt;Groupe&gt;"><g id="_Groupe_2" data-name="&lt;Groupe&gt;"><path id="_Tracé_transparent_" data-name="&lt;Tracé transparent&gt;" class="cls-1" d="M46,15.72H43.38a.46.46,0,0,1-.44-.46V8c0-1.53-.28-2-1.62-2a4.7,4.7,0,0,0-2.06.71v8.64a.46.46,0,0,1-.44.46H36.17a.48.48,0,0,1-.46-.46V3.59a.44.44,0,0,1,.44-.44H38.6a.44.44,0,0,1,.44.44v.53A5.5,5.5,0,0,1,42.61,3c3.18,0,3.89,2.21,3.89,5v7.31A.48.48,0,0,1,46,15.72Z"/><path id="_Tracé_transparent_2" data-name="&lt;Tracé transparent&gt;" class="cls-1" d="M59.3,10.54h-7v.05A2.1,2.1,0,0,0,54.57,13c1.38,0,3.33-.11,4.21-.2h.06c.25,0,.42.11.42.35V14.8c0,.35-.09.5-.46.59a16.78,16.78,0,0,1-4.5.53c-2.65,0-5.5-1.41-5.5-5.64V8.74C48.8,5.21,50.86,3,54.35,3s5.42,2.45,5.42,5.76V10A.46.46,0,0,1,59.3,10.54Zm-3-2.28c0-1.62-.75-2.43-2-2.43s-2,.83-2,2.43v.09h4Z"/><path id="_Tracé_transparent_3" data-name="&lt;Tracé transparent&gt;" class="cls-1" d="M73.28,15.72H70c-.24,0-.37-.13-.57-.46l-2.17-3.4-2,3.42c-.19.33-.33.44-.57.44H61.67a.24.24,0,0,1-.24-.27.25.25,0,0,1,0-.17l3.83-6.1L61.59,3.61a.24.24,0,0,1-.05-.13.34.34,0,0,1,.33-.33h3.27c.24,0,.37.18.57.46l2,3,1.8-3c.2-.33.33-.46.57-.46H73a.27.27,0,0,1,.26.29.27.27,0,0,1,0,.17L69.57,9.36l4,5.9a.3.3,0,0,1,0,.15A.32.32,0,0,1,73.28,15.72Z"/><path id="_Tracé_transparent_4" data-name="&lt;Tracé transparent&gt;" class="cls-1" d="M82.42,15.74a9.5,9.5,0,0,1-1.73.18c-2.41,0-3.69-.64-3.69-3.76V5.8l-1.75-.28a.51.51,0,0,1-.46-.46V3.61a.48.48,0,0,1,.46-.46H77V1.35c0-.24.2-.39.44-.44L80.12.45h.06a.38.38,0,0,1,.4.38V3.15h1.8a.44.44,0,0,1,.44.44V5.37a.44.44,0,0,1-.44.43h-1.8v6.39c0,.87.06,1,.72,1h1.08c.28,0,.46.13.46.37V15.3A.45.45,0,0,1,82.42,15.74Z"/><path id="_Tracé_transparent_5" data-name="&lt;Tracé transparent&gt;" class="cls-1" d="M51.8,33.63H49.15a.46.46,0,0,1-.44-.46V25.69c0-1.4-.33-1.82-1.34-1.82a4.28,4.28,0,0,0-1.68.39c0,.44.06.95.06,1.43v7.48a.46.46,0,0,1-.44.46H42.66a.48.48,0,0,1-.46-.46V25.69c0-1.4-.26-1.82-1.27-1.82a4.15,4.15,0,0,0-1.67.57v8.73a.46.46,0,0,1-.44.46H36.17a.48.48,0,0,1-.46-.46V21.5a.44.44,0,0,1,.44-.44h2.5a.44.44,0,0,1,.43.44V22a5.83,5.83,0,0,1,3.25-1.09A3.1,3.1,0,0,1,44.92,22a6.45,6.45,0,0,1,3.57-1.07c2.9,0,3.77,1.93,3.77,4.8v7.48A.47.47,0,0,1,51.8,33.63Z"/><path id="_Tracé_transparent_6" data-name="&lt;Tracé transparent&gt;" class="cls-1" d="M65.07,28.45h-7v.05a2.09,2.09,0,0,0,2.26,2.39c1.38,0,3.33-.11,4.21-.2h.06c.24,0,.42.11.42.35v1.67c0,.35-.09.5-.46.59a16.78,16.78,0,0,1-4.5.53c-2.65,0-5.5-1.41-5.5-5.64V26.65c0-3.53,2.06-5.76,5.55-5.76s5.41,2.45,5.41,5.76v1.28C65.53,28.26,65.36,28.45,65.07,28.45Zm-3-2.28c0-1.62-.75-2.43-2-2.43s-2,.83-2,2.43v.09h4Z"/><path id="_Tracé_transparent_7" data-name="&lt;Tracé transparent&gt;" class="cls-1" d="M77.62,33.26a21,21,0,0,1-4.67.57c-3.56,0-5.51-2.07-5.51-5.62V26.5c0-3.44,1.8-5.61,5.51-5.61a14.49,14.49,0,0,1,1.79.15V17.25a.44.44,0,0,1,.44-.44h2.66a.46.46,0,0,1,.46.44V32.62C78.3,33,78.21,33.12,77.62,33.26Zm-2.88-9.32A15.36,15.36,0,0,0,73,23.83c-1.56,0-2,1.14-2,2.67v1.71c0,1.56.4,2.7,2,2.7a12.85,12.85,0,0,0,1.79-.13Z"/><path id="_Tracé_transparent_8" data-name="&lt;Tracé transparent&gt;" class="cls-1" d="M84.13,33.63H81.46a.44.44,0,0,1-.44-.44V21.5a.44.44,0,0,1,.44-.44h2.67a.44.44,0,0,1,.44.44V33.19A.44.44,0,0,1,84.13,33.63Z"/><path id="_Tracé_transparent_9" data-name="&lt;Tracé transparent&gt;" class="cls-1" d="M96.54,33.63H94.09a.44.44,0,0,1-.44-.44v-.35a4.87,4.87,0,0,1-3.05,1,3.42,3.42,0,0,1-3.75-3.78v-.19c0-2.57,1.65-3.71,5.4-3.71h1.18v-.79c0-1.25-.61-1.51-1.64-1.51-1.41,0-3,.09-3.64.15H88a.36.36,0,0,1-.4-.39V21.83a.48.48,0,0,1,.42-.48,17.42,17.42,0,0,1,3.79-.46C95,20.89,97,22.16,97,25.36v7.83A.44.44,0,0,1,96.54,33.63Zm-3-5.37H92.25c-1.54,0-1.93.52-1.93,1.6v.19c0,.92.46,1.1,1.38,1.1a4.11,4.11,0,0,0,1.8-.48Z"/></g><g id="_Groupe_3" data-name="&lt;Groupe&gt;"><path id="_Tracé_transparent_10" data-name="&lt;Tracé transparent&gt;" class="cls-1" d="M38.92,38.91a1.55,1.55,0,0,1-.42,1.19,1.65,1.65,0,0,1-1.21.41h-.75V37.38h.84a1.59,1.59,0,0,1,1.15.39A1.54,1.54,0,0,1,38.92,38.91Zm-.24,0a1.2,1.2,0,0,0-1.35-1.35h-.57v2.75h.52A1.24,1.24,0,0,0,38.68,38.92Z"/><path id="_Tracé_transparent_11" data-name="&lt;Tracé transparent&gt;" class="cls-1" d="M42.14,37.53c0-.13,0-.2.14-.2a.11.11,0,0,1,.1.05.33.33,0,0,1,0,.15.27.27,0,0,1,0,.15.12.12,0,0,1-.1.06C42.19,37.74,42.14,37.67,42.14,37.53Zm.24,3h-.21V38.18h.21Z"/><path id="_Tracé_transparent_12" data-name="&lt;Tracé transparent&gt;" class="cls-1" d="M47.57,38.18v.15l-.49,0a.81.81,0,0,1,.2.52.72.72,0,0,1-.23.55.84.84,0,0,1-.6.21h-.22a.49.49,0,0,0-.19.15A.3.3,0,0,0,46,40a.16.16,0,0,0,.09.16.48.48,0,0,0,.28.06h.41a1,1,0,0,1,.58.15.54.54,0,0,1,.2.45.64.64,0,0,1-.3.57,1.47,1.47,0,0,1-.85.2,1.1,1.1,0,0,1-.68-.17.54.54,0,0,1-.24-.47.57.57,0,0,1,.15-.4.7.7,0,0,1,.4-.21.45.45,0,0,1-.17-.13.33.33,0,0,1-.06-.19c0-.16.1-.29.3-.41a.64.64,0,0,1-.32-.26.82.82,0,0,1,.11-1,.82.82,0,0,1,.6-.22,1,1,0,0,1,.35,0ZM45.68,40.9c0,.32.24.48.71.48s.92-.19.92-.58a.37.37,0,0,0-.14-.31.93.93,0,0,0-.47-.09h-.38C45.9,40.4,45.68,40.57,45.68,40.9Zm.18-2a.5.5,0,0,0,.16.41.63.63,0,0,0,.44.15.69.69,0,0,0,.45-.14.59.59,0,0,0,.15-.43.58.58,0,0,0-.16-.45.61.61,0,0,0-1,.46Z"/><path id="_Tracé_transparent_13" data-name="&lt;Tracé transparent&gt;" class="cls-1" d="M50.6,37.53c0-.13,0-.2.14-.2a.1.1,0,0,1,.1.05.24.24,0,0,1,0,.15.21.21,0,0,1,0,.15.11.11,0,0,1-.1.06C50.65,37.74,50.6,37.67,50.6,37.53Zm.24,3h-.21V38.18h.21Z"/><path id="_Tracé_transparent_14" data-name="&lt;Tracé transparent&gt;" class="cls-1" d="M54.83,40.36a1.83,1.83,0,0,0,.35,0v.17a1.3,1.3,0,0,1-.36,0,.56.56,0,0,1-.45-.16.77.77,0,0,1-.15-.52V38.36h-.35v-.12l.35-.1.11-.52h.11v.56h.68v.18h-.68v1.48a.66.66,0,0,0,.09.39A.33.33,0,0,0,54.83,40.36Z"/><path id="_Tracé_transparent_15" data-name="&lt;Tracé transparent&gt;" class="cls-1" d="M59.68,40.51l0-.37h0a1.15,1.15,0,0,1-.36.32,1,1,0,0,1-.44.09.78.78,0,0,1-.53-.17.63.63,0,0,1-.19-.49.6.6,0,0,1,.28-.53,1.55,1.55,0,0,1,.82-.2h.45V39a.8.8,0,0,0-.14-.5.52.52,0,0,0-.43-.17,1.43,1.43,0,0,0-.67.18l-.08-.18a1.76,1.76,0,0,1,.76-.18.77.77,0,0,1,.57.2.85.85,0,0,1,.19.62v1.55Zm-.86-.15a.77.77,0,0,0,.59-.22.76.76,0,0,0,.22-.59v-.23l-.41,0a1.7,1.7,0,0,0-.7.15.5.5,0,0,0-.07.75A.53.53,0,0,0,58.82,40.36Z"/><path id="_Tracé_transparent_16" data-name="&lt;Tracé transparent&gt;" class="cls-1" d="M63.39,40.51h-.21V37.17h.21Z"/><path id="_Tracé_transparent_17" data-name="&lt;Tracé transparent&gt;" class="cls-1" d="M72.05,39.4H70.78l-.44,1.11H70.1l1.26-3.15h.14l1.23,3.15h-.25Zm-1.19-.19H72l-.43-1.13a3.66,3.66,0,0,1-.13-.37,2.64,2.64,0,0,1-.13.37Z"/><path id="_Tracé_transparent_18" data-name="&lt;Tracé transparent&gt;" class="cls-1" d="M77.52,38.18v.15l-.48,0a.81.81,0,0,1,.2.52.72.72,0,0,1-.23.55.84.84,0,0,1-.6.21h-.22a.53.53,0,0,0-.2.15.35.35,0,0,0-.06.19.17.17,0,0,0,.08.16.52.52,0,0,0,.29.06h.4a.94.94,0,0,1,.58.15.52.52,0,0,1,.21.45.64.64,0,0,1-.3.57,1.49,1.49,0,0,1-.85.2,1.16,1.16,0,0,1-.69-.17.54.54,0,0,1-.24-.47.57.57,0,0,1,.15-.4.77.77,0,0,1,.41-.21.45.45,0,0,1-.17-.13.33.33,0,0,1-.06-.19.48.48,0,0,1,.29-.41.66.66,0,0,1-.31-.26.73.73,0,0,1-.12-.41.75.75,0,0,1,.22-.56.85.85,0,0,1,.6-.22,1.11,1.11,0,0,1,.36,0ZM75.64,40.9c0,.32.24.48.71.48s.92-.19.92-.58a.37.37,0,0,0-.14-.31,1,1,0,0,0-.47-.09h-.38C75.85,40.4,75.64,40.57,75.64,40.9Zm.18-2a.5.5,0,0,0,.16.41.63.63,0,0,0,.44.15.69.69,0,0,0,.45-.14A.59.59,0,0,0,77,38.9a.58.58,0,0,0-.16-.45.63.63,0,0,0-.45-.15.6.6,0,0,0-.43.16A.61.61,0,0,0,75.82,38.91Z"/><path id="_Tracé_transparent_19" data-name="&lt;Tracé transparent&gt;" class="cls-1" d="M81.53,40.55a1,1,0,0,1-.79-.31,1.26,1.26,0,0,1-.29-.88,1.37,1.37,0,0,1,.28-.89.92.92,0,0,1,.74-.34.81.81,0,0,1,.65.29,1.17,1.17,0,0,1,.23.78v.17H80.68a1.09,1.09,0,0,0,.22.74.83.83,0,0,0,.63.25,1.83,1.83,0,0,0,.35,0,2.27,2.27,0,0,0,.38-.12v.19a1.52,1.52,0,0,1-.36.12A2.13,2.13,0,0,1,81.53,40.55Zm-.06-2.23a.68.68,0,0,0-.54.23,1,1,0,0,0-.24.63h1.44a1,1,0,0,0-.18-.63A.57.57,0,0,0,81.47,38.32Z"/><path id="_Tracé_transparent_20" data-name="&lt;Tracé transparent&gt;" class="cls-1" d="M87.21,40.51V39a.71.71,0,0,0-.15-.51.59.59,0,0,0-.46-.16.79.79,0,0,0-.61.21,1,1,0,0,0-.19.68v1.29h-.22V38.18h.18l0,.32h0a.88.88,0,0,1,.81-.37c.52,0,.79.29.79.86v1.52Z"/><path id="_Tracé_transparent_21" data-name="&lt;Tracé transparent&gt;" class="cls-1" d="M91.69,40.55a1,1,0,0,1-.78-.31,1.28,1.28,0,0,1-.29-.88,1.25,1.25,0,0,1,.3-.9,1,1,0,0,1,.8-.33,1.66,1.66,0,0,1,.58.11l-.06.19a1.58,1.58,0,0,0-.52-.1.81.81,0,0,0-.65.26,1.15,1.15,0,0,0-.22.76,1.11,1.11,0,0,0,.22.74.75.75,0,0,0,.62.27,1.4,1.4,0,0,0,.58-.12v.2A1.33,1.33,0,0,1,91.69,40.55Z"/><path id="_Tracé_transparent_22" data-name="&lt;Tracé transparent&gt;" class="cls-1" d="M95,38.18h.22l.49,1.31c.15.4.25.67.29.81h0c.06-.19.16-.46.29-.83l.5-1.29h.22l-1,2.7a1.93,1.93,0,0,1-.21.45.54.54,0,0,1-.2.17.61.61,0,0,1-.28.06.93.93,0,0,1-.27,0v-.19a.77.77,0,0,0,.27,0,.41.41,0,0,0,.19,0,.46.46,0,0,0,.15-.16,2,2,0,0,0,.16-.35c.06-.15.1-.26.11-.3Z"/></g><g id="_Groupe_4" data-name="&lt;Groupe&gt;"><path id="_Tracé_" data-name="&lt;Tracé&gt;" class="cls-1" d="M82.65,19.82a1.67,1.67,0,0,1,0-3.34,1.67,1.67,0,0,1,0,3.34Z"/></g><g id="_Groupe_5" data-name="&lt;Groupe&gt;"><g id="_Groupe_6" data-name="&lt;Groupe&gt;"><path id="_Tracé_2" data-name="&lt;Tracé&gt;" class="cls-1" d="M4.1,10.09A4.08,4.08,0,0,1,1.24,8.91a4.06,4.06,0,0,1,0-5.72A4.05,4.05,0,0,1,8.15,6.05,4.11,4.11,0,0,1,7,8.91,4.07,4.07,0,0,1,4.1,10.09Z"/></g><g id="_Groupe_7" data-name="&lt;Groupe&gt;" class="cls-2"><path id="_Tracé_3" data-name="&lt;Tracé&gt;" class="cls-1" d="M4.1,26.09a4.08,4.08,0,0,1-2.86-1.18,4.06,4.06,0,0,1,0-5.72,4.05,4.05,0,0,1,6.91,2.86A4.11,4.11,0,0,1,7,24.91,4.07,4.07,0,0,1,4.1,26.09Z"/></g><path id="_Tracé_4" data-name="&lt;Tracé&gt;" class="cls-3" d="M19.78,22h0a4,4,0,0,1,3.51-4.51h0A4,4,0,0,1,27.8,21h0a4,4,0,0,1-3.51,4.51h0a4.36,4.36,0,0,1-.51,0h0A4,4,0,0,1,19.78,22Z"/><path id="_Tracé_5" data-name="&lt;Tracé&gt;" class="cls-4" d="M10.11,30.33h0a4,4,0,0,1,3.51-4.52h0a4.05,4.05,0,0,1,4.51,3.52h0a4,4,0,0,1-3.51,4.51h0l-.51,0h0A4,4,0,0,1,10.11,30.33Z"/><path id="_Tracé_6" data-name="&lt;Tracé&gt;" class="cls-4" d="M11.58,17.07a4,4,0,0,1-.78-5.66h0a4,4,0,0,1,5.67-.78h0a4,4,0,0,1,.78,5.67h0A4,4,0,0,1,14,17.9h0A4,4,0,0,1,11.58,17.07Z"/><g id="_Groupe_8" data-name="&lt;Groupe&gt;" class="cls-5"><path id="_Tracé_7" data-name="&lt;Tracé&gt;" class="cls-1" d="M4.1,41.19a4,4,0,0,1-4-4,4.1,4.1,0,0,1,1.18-2.86,4.06,4.06,0,0,1,5.72,0,4,4,0,0,1-2.86,6.9Z"/></g></g></g></svg>